<svg width="145" height="19" viewBox="0 0 145 19" fill="none" xmlns="http://www.w3.org/2000/svg">
<path d="M12.336 18.384C11.296 18.384 10.424 17.64 9.71999 16.152L7.63199 11.928H5.92799L5.87999 14.64C5.87999 15.2 5.91999 15.608 5.99999 15.864C6.07999 16.104 6.23199 16.264 6.45599 16.344C6.67999 16.424 7.06399 16.472 7.60799 16.488L7.67999 16.632L7.46399 18.096C7.17599 18.08 6.67199 18.064 5.95199 18.048C5.23199 18.032 4.56799 18.024 3.95999 18.024C3.36799 18.024 2.75999 18.04 2.13599 18.072C1.51199 18.104 1.10399 18.128 0.911987 18.144L1.12799 16.56C1.79999 16.48 2.24799 16.304 2.47199 16.032C2.71199 15.76 2.83199 15.28 2.83199 14.592V5.304C2.83199 4.84 2.77599 4.528 2.66399 4.368C2.56799 4.208 2.36799 4.128 2.06399 4.128C1.88799 4.128 1.71999 4.136 1.55999 4.152C1.39999 4.168 1.29599 4.176 1.24799 4.176L1.10399 3.984L1.31999 2.544C1.54399 2.544 1.95199 2.552 2.54399 2.568C3.15199 2.584 3.74399 2.592 4.31999 2.592C4.95999 2.592 5.64799 2.584 6.38399 2.568C7.13599 2.536 7.65599 2.512 7.94399 2.496C9.76799 2.496 11.16 2.848 12.12 3.552C13.096 4.256 13.584 5.272 13.584 6.6C13.584 7.544 13.304 8.408 12.744 9.192C12.184 9.976 11.384 10.632 10.344 11.16L12.456 14.592C12.904 15.328 13.336 15.856 13.752 16.176C14.168 16.496 14.632 16.656 15.144 16.656L15.312 16.872L15.144 18.12L12.336 18.384ZM8.15999 10.08C8.68799 9.856 9.16799 9.528 9.59999 9.096C10.032 8.648 10.248 7.96 10.248 7.032C10.248 6.152 9.95199 5.496 9.35999 5.064C8.76799 4.632 7.85599 4.416 6.62399 4.416C6.46399 4.416 6.35199 4.448 6.28799 4.512C6.23999 4.576 6.20799 4.72 6.19199 4.944C6.09599 6.592 6.03199 8.224 5.99999 9.84L8.15999 10.08Z" fill="#0B5B5A"/>
<path d="M20.6964 18.288C19.0164 18.288 17.6884 17.8 16.7124 16.824C15.7524 15.832 15.2724 14.48 15.2724 12.768C15.2724 11.616 15.5204 10.576 16.0164 9.648C16.5124 8.72 17.1924 7.992 18.0564 7.464C18.9204 6.92 19.8804 6.648 20.9364 6.648C23.6244 6.648 24.9684 8.008 24.9684 10.728C24.9684 11.208 24.9124 11.656 24.8004 12.072L24.5124 12.36H18.2964C18.3124 13.528 18.5844 14.424 19.1124 15.048C19.6564 15.656 20.4084 15.96 21.3684 15.96C22.2004 15.96 23.1524 15.72 24.2244 15.24L24.3924 15.336L24.7764 16.512C24.1844 16.96 23.4964 17.368 22.7124 17.736C21.9444 18.104 21.2724 18.288 20.6964 18.288ZM21.5844 10.848C21.7764 10.832 21.8964 10.792 21.9444 10.728C22.0084 10.664 22.0404 10.52 22.0404 10.296C22.0404 9.112 21.5364 8.52 20.5284 8.52C19.9044 8.52 19.3924 8.736 18.9924 9.168C18.6084 9.6 18.3764 10.224 18.2964 11.04L21.5844 10.848Z" fill="#0B5B5A"/>
<path d="M33.3904 16.704C33.7904 16.624 34.0704 16.48 34.2304 16.272C34.4064 16.064 34.5024 15.76 34.5184 15.36L34.5904 11.208C34.5904 10.504 34.4624 9.984 34.2064 9.648C33.9504 9.296 33.5584 9.12 33.0304 9.12C32.4224 9.12 31.7184 9.424 30.9184 10.032C30.7584 12.912 30.6784 14.712 30.6784 15.432C30.6784 15.832 30.7264 16.112 30.8224 16.272C30.9344 16.432 31.1264 16.512 31.3984 16.512L32.0464 16.488L32.0944 16.584L31.8544 18.072C31.6784 18.056 31.3424 18.04 30.8464 18.024C30.3664 18.008 29.8624 18 29.3344 18C28.8224 18 28.2624 18.016 27.6544 18.048C27.0624 18.096 26.6784 18.128 26.5024 18.144L26.6944 16.656C27.1584 16.608 27.4784 16.488 27.6544 16.296C27.8464 16.088 27.9424 15.76 27.9424 15.312V10.224C27.9424 9.664 27.8544 9.288 27.6784 9.096C27.5184 8.888 27.2144 8.784 26.7664 8.784H26.4544L26.3584 8.664L26.4784 7.416C27.3904 7.288 28.2864 7.136 29.1664 6.96C30.0624 6.784 30.6384 6.672 30.8944 6.624L31.0864 6.864C31.0544 6.96 31.0064 7.176 30.9424 7.512C30.8784 7.848 30.8384 8.184 30.8224 8.52L30.9184 8.616C31.4144 8.184 31.9824 7.752 32.6224 7.32C33.2784 6.872 33.7504 6.648 34.0384 6.648C35.1744 6.648 36.0544 6.92 36.6784 7.464C37.3184 8.008 37.6384 8.768 37.6384 9.744C37.6384 9.984 37.5744 10.824 37.4464 12.264C37.2864 13.896 37.2064 14.944 37.2064 15.408C37.2064 15.824 37.2624 16.12 37.3744 16.296C37.5024 16.472 37.6944 16.56 37.9504 16.56C38.1104 16.56 38.2624 16.552 38.4064 16.536C38.5504 16.52 38.6464 16.512 38.6944 16.512L38.7424 16.608L38.5264 18.072C38.3344 18.056 37.9824 18.04 37.4704 18.024C36.9744 18.008 36.4624 18 35.9344 18C35.5504 18 35.0544 18.024 34.4464 18.072C33.8544 18.136 33.4624 18.176 33.2704 18.192L33.3904 16.704Z" fill="#0B5B5A"/>
<path d="M48.3789 18.288C47.6749 18.288 47.1149 18.136 46.6989 17.832C46.2989 17.512 46.0589 17.048 45.9789 16.44L45.7869 16.368C45.2749 16.896 44.7789 17.336 44.2989 17.688C43.8189 18.024 43.4349 18.192 43.1469 18.192C42.2029 18.192 41.4189 17.864 40.7949 17.208C40.1709 16.536 39.8589 15.704 39.8589 14.712C39.8589 14.216 39.9869 13.792 40.2429 13.44C40.4989 13.072 40.8349 12.832 41.2509 12.72L45.8829 11.64L45.9069 11.064C45.9069 10.376 45.7229 9.84 45.3549 9.456C44.9869 9.072 44.4829 8.88 43.8429 8.88C43.4109 8.88 42.9389 8.992 42.4269 9.216C41.9309 9.424 41.4669 9.688 41.0349 10.008L40.8189 9.912L40.4109 8.472C41.2109 8.024 42.0509 7.608 42.9309 7.224C43.8109 6.84 44.4349 6.648 44.8029 6.648C46.1309 6.648 47.1229 6.952 47.7789 7.56C48.4509 8.152 48.7869 8.936 48.7869 9.912C48.7869 10.264 48.7149 10.984 48.5709 12.072C48.3949 13.624 48.3069 14.552 48.3069 14.856C48.3069 15.16 48.3869 15.4 48.5469 15.576C48.7069 15.752 48.9149 15.84 49.1709 15.84C49.3629 15.84 49.5629 15.8 49.7709 15.72C49.9949 15.624 50.1789 15.528 50.3229 15.432L50.6829 15.936C50.3949 16.448 50.0349 16.944 49.6029 17.424C49.1869 17.888 48.7789 18.176 48.3789 18.288ZM44.0349 15.912C44.2749 15.912 44.5549 15.848 44.8749 15.72C45.2109 15.592 45.5069 15.424 45.7629 15.216L45.8349 12.936L43.2669 13.656C42.8829 13.752 42.6909 14.016 42.6909 14.448C42.6909 14.864 42.8109 15.216 43.0509 15.504C43.3069 15.776 43.6349 15.912 44.0349 15.912Z" fill="#0B5B5A"/>
<path d="M55.7565 18.288C54.6205 18.288 53.7885 18.056 53.2605 17.592C52.7325 17.112 52.4685 16.36 52.4685 15.336V9.984C52.4685 9.472 52.3805 9.136 52.2045 8.976C52.0285 8.8 51.6845 8.704 51.1725 8.688L50.9325 8.52L51.1005 7.344C51.7085 7.056 52.3085 6.728 52.9005 6.36C53.4925 5.976 53.9805 5.64 54.3645 5.352C54.7645 5.064 55.0125 4.88 55.1085 4.8L55.7805 5.136C55.7645 5.232 55.7245 5.464 55.6605 5.832C55.6125 6.2 55.5645 6.656 55.5165 7.2L58.3485 7.128L58.4445 7.248L58.2045 8.856L55.3725 8.784C55.2765 10.176 55.2285 11.92 55.2285 14.016C55.2285 14.704 55.3485 15.2 55.5885 15.504C55.8285 15.808 56.2205 15.96 56.7645 15.96C57.0525 15.96 57.3405 15.912 57.6285 15.816C57.9325 15.72 58.1245 15.656 58.2045 15.624L58.5165 16.392C58.4205 16.488 58.1885 16.688 57.8205 16.992C57.4685 17.296 57.0845 17.592 56.6685 17.88C56.2685 18.152 55.9645 18.288 55.7565 18.288Z" fill="#0B5B5A"/>
<path d="M67.9492 18.288C67.2452 18.288 66.6852 18.136 66.2692 17.832C65.8692 17.512 65.6292 17.048 65.5492 16.44L65.3572 16.368C64.8452 16.896 64.3492 17.336 63.8692 17.688C63.3892 18.024 63.0052 18.192 62.7172 18.192C61.7732 18.192 60.9892 17.864 60.3652 17.208C59.7412 16.536 59.4292 15.704 59.4292 14.712C59.4292 14.216 59.5572 13.792 59.8132 13.44C60.0692 13.072 60.4052 12.832 60.8212 12.72L65.4532 11.64L65.4772 11.064C65.4772 10.376 65.2932 9.84 64.9252 9.456C64.5572 9.072 64.0532 8.88 63.4132 8.88C62.9812 8.88 62.5092 8.992 61.9972 9.216C61.5012 9.424 61.0372 9.688 60.6052 10.008L60.3892 9.912L59.9812 8.472C60.7812 8.024 61.6212 7.608 62.5012 7.224C63.3812 6.84 64.0052 6.648 64.3732 6.648C65.7012 6.648 66.6932 6.952 67.3492 7.56C68.0212 8.152 68.3572 8.936 68.3572 9.912C68.3572 10.264 68.2852 10.984 68.1412 12.072C67.9652 13.624 67.8772 14.552 67.8772 14.856C67.8772 15.16 67.9572 15.4 68.1172 15.576C68.2772 15.752 68.4852 15.84 68.7412 15.84C68.9332 15.84 69.1332 15.8 69.3412 15.72C69.5652 15.624 69.7492 15.528 69.8932 15.432L70.2532 15.936C69.9652 16.448 69.6052 16.944 69.1732 17.424C68.7572 17.888 68.3492 18.176 67.9492 18.288ZM63.6052 15.912C63.8452 15.912 64.1252 15.848 64.4452 15.72C64.7812 15.592 65.0772 15.424 65.3332 15.216L65.4052 12.936L62.8372 13.656C62.4532 13.752 62.2612 14.016 62.2612 14.448C62.2612 14.864 62.3812 15.216 62.6212 15.504C62.8772 15.776 63.2052 15.912 63.6052 15.912Z" fill="#0B5B5A"/>
<path d="M75.6347 16.656C76.3227 16.544 76.7787 16.344 77.0027 16.056C77.2427 15.768 77.3627 15.272 77.3627 14.568L77.3867 5.424C77.3867 4.912 77.3307 4.568 77.2187 4.392C77.1227 4.216 76.9227 4.128 76.6187 4.128C76.4587 4.128 76.3067 4.136 76.1627 4.152C76.0187 4.168 75.9227 4.176 75.8747 4.176L75.7307 3.96L75.9227 2.52C76.2107 2.536 76.7627 2.552 77.5787 2.568C78.4107 2.584 79.3067 2.592 80.2667 2.592C83.5467 2.592 85.7947 2.496 87.0107 2.304L87.2027 2.568C87.1547 2.824 87.0667 3.392 86.9387 4.272C86.8267 5.136 86.7467 6.032 86.6987 6.96L84.5627 7.08C84.5627 7 84.5707 6.864 84.5867 6.672C84.6027 6.48 84.6107 6.288 84.6107 6.096C84.6107 5.632 84.5467 5.296 84.4187 5.088C84.3067 4.88 84.0747 4.744 83.7227 4.68C83.3867 4.6 82.8267 4.56 82.0427 4.56C81.6267 4.56 81.3387 4.576 81.1787 4.608C81.0187 4.64 80.9067 4.712 80.8427 4.824C80.7947 4.936 80.7627 5.12 80.7467 5.376L80.5787 9.552L82.8347 9.576C83.1387 9.576 83.5867 9.544 84.1787 9.48C84.7707 9.416 85.1627 9.376 85.3547 9.36L85.5227 9.576L85.1867 11.616C84.9947 11.6 84.6187 11.584 84.0587 11.568C83.5147 11.552 82.9387 11.544 82.3307 11.544C81.7547 11.544 81.1467 11.6 80.5067 11.712L80.4347 14.64C80.4347 15.248 80.4987 15.656 80.6267 15.864C80.7707 16.072 81.0507 16.176 81.4667 16.176C81.7227 16.176 82.0187 16.16 82.3547 16.128C82.6907 16.096 82.9147 16.072 83.0267 16.056L83.2427 16.296L82.9787 18.096C82.7067 18.08 82.1947 18.056 81.4427 18.024C80.7067 18.008 79.9707 18 79.2347 18C78.4987 18 77.7387 18.032 76.9547 18.096C76.1867 18.176 75.6907 18.232 75.4667 18.264L75.6347 16.656Z" fill="#0B5B5A"/>
<path d="M88.8937 9.912C88.8937 9.496 88.8297 9.2 88.7017 9.024C88.5737 8.832 88.3657 8.736 88.0777 8.736C87.9337 8.736 87.8057 8.744 87.6937 8.76C87.5817 8.776 87.5097 8.792 87.4777 8.808L87.6217 7.416C88.4537 7.304 89.3177 7.168 90.2137 7.008C91.1097 6.832 91.6937 6.712 91.9657 6.648L92.1817 7.032C92.0057 7.432 91.8537 8.312 91.7257 9.672C91.5977 11.016 91.5337 12.408 91.5337 13.848C91.5337 14.504 91.6537 14.992 91.8937 15.312C92.1497 15.632 92.5337 15.792 93.0457 15.792C93.3657 15.792 93.6777 15.72 93.9817 15.576C94.3017 15.416 94.6857 15.184 95.1337 14.88V9.936C95.1337 9.488 95.0617 9.184 94.9177 9.024C94.7897 8.864 94.5177 8.776 94.1017 8.76L93.6697 8.784L93.8617 7.416C94.7257 7.304 95.6137 7.168 96.5257 7.008C97.4537 6.848 98.0537 6.744 98.3257 6.696L98.5417 7.08C98.3657 7.448 98.2137 8.384 98.0857 9.888C97.9577 11.392 97.8937 13.048 97.8937 14.856C97.8937 15.16 97.9737 15.4 98.1337 15.576C98.2937 15.752 98.5017 15.84 98.7577 15.84C98.9337 15.84 99.1017 15.808 99.2617 15.744C99.4377 15.68 99.5817 15.616 99.6937 15.552C99.8057 15.488 99.8777 15.448 99.9097 15.432L100.27 15.912C100.206 16.024 100.046 16.256 99.7897 16.608C99.5337 16.944 99.2217 17.288 98.8537 17.64C98.4857 17.992 98.1337 18.208 97.7977 18.288C96.3417 18.288 95.5257 17.672 95.3497 16.44L95.1577 16.344C94.5497 16.904 93.9897 17.368 93.4777 17.736C92.9817 18.088 92.6457 18.264 92.4697 18.264C91.2537 18.264 90.3257 18.008 89.6857 17.496C89.0457 16.984 88.7257 16.24 88.7257 15.264L88.8937 9.912ZM91.1977 4.752C90.7497 4.752 90.3977 4.624 90.1417 4.368C89.9017 4.096 89.7817 3.744 89.7817 3.312C89.7817 2.848 89.9257 2.472 90.2137 2.184C90.5177 1.88 90.9097 1.728 91.3897 1.728C91.8217 1.728 92.1577 1.856 92.3977 2.112C92.6537 2.368 92.7817 2.712 92.7817 3.144C92.7817 3.608 92.6297 3.992 92.3257 4.296C92.0377 4.6 91.6617 4.752 91.1977 4.752ZM95.4697 4.752C95.0217 4.752 94.6697 4.624 94.4137 4.368C94.1737 4.096 94.0537 3.744 94.0537 3.312C94.0537 2.848 94.1977 2.472 94.4857 2.184C94.7897 1.88 95.1737 1.728 95.6377 1.728C96.0857 1.728 96.4297 1.856 96.6697 2.112C96.9257 2.368 97.0537 2.712 97.0537 3.144C97.0537 3.608 96.9017 3.992 96.5977 4.296C96.3097 4.6 95.9337 4.752 95.4697 4.752Z" fill="#0B5B5A"/>
<path d="M106.099 18.288C104.467 18.288 103.179 17.8 102.235 16.824C101.291 15.832 100.819 14.48 100.819 12.768C100.819 11.584 101.067 10.528 101.563 9.6C102.059 8.672 102.747 7.952 103.627 7.44C104.523 6.912 105.531 6.648 106.651 6.648C107.179 6.648 107.667 6.688 108.115 6.768C108.579 6.832 108.939 6.904 109.195 6.984C109.467 7.048 109.635 7.096 109.699 7.128L109.795 7.344C109.779 7.44 109.731 7.664 109.651 8.016C109.587 8.352 109.515 8.792 109.435 9.336C109.355 9.88 109.299 10.448 109.267 11.04L107.731 11.136V10.344C107.731 9.8 107.595 9.384 107.323 9.096C107.067 8.792 106.699 8.64 106.219 8.64C105.467 8.64 104.891 8.92 104.491 9.48C104.107 10.024 103.915 10.808 103.915 11.832C103.915 13.144 104.147 14.152 104.611 14.856C105.075 15.56 105.731 15.912 106.579 15.912C106.979 15.912 107.363 15.864 107.731 15.768C108.115 15.656 108.427 15.544 108.667 15.432C108.923 15.32 109.083 15.248 109.147 15.216L109.315 15.288L109.699 16.512C109.587 16.608 109.331 16.8 108.931 17.088C108.531 17.36 108.067 17.632 107.539 17.904C107.011 18.16 106.531 18.288 106.099 18.288Z" fill="#0B5B5A"/>
<path d="M111.038 16.608C111.454 16.56 111.742 16.448 111.902 16.272C112.078 16.08 112.166 15.76 112.166 15.312V3.648C112.166 3.136 112.094 2.784 111.95 2.592C111.806 2.4 111.542 2.304 111.158 2.304H110.606L110.51 2.208L110.654 0.960001C112.382 0.720002 113.998 0.464002 115.502 0.192001L115.67 0.648001C115.51 0.824002 115.374 1.624 115.262 3.048C115.15 4.456 115.062 6.344 114.998 8.712C115.51 8.216 116.094 7.752 116.75 7.32C117.422 6.872 117.91 6.648 118.214 6.648C119.366 6.648 120.254 6.92 120.878 7.464C121.502 7.992 121.814 8.752 121.814 9.744C121.814 10.128 121.742 10.968 121.598 12.264C121.438 13.896 121.358 14.944 121.358 15.408C121.358 15.824 121.414 16.12 121.526 16.296C121.654 16.472 121.854 16.56 122.126 16.56L122.846 16.512L122.894 16.608L122.678 18.072L122.126 18.048C121.198 18.016 120.518 18 120.086 18C119.494 18 118.606 18.064 117.422 18.192L117.542 16.704C117.942 16.624 118.23 16.48 118.406 16.272C118.582 16.064 118.67 15.76 118.67 15.36L118.766 11.208C118.782 9.816 118.262 9.12 117.206 9.12C116.934 9.12 116.582 9.216 116.15 9.408C115.734 9.584 115.342 9.824 114.974 10.128C114.942 11.056 114.926 12.832 114.926 15.456C114.926 15.856 114.982 16.136 115.094 16.296C115.206 16.456 115.39 16.536 115.646 16.536L116.27 16.512L116.318 16.632L116.078 18.072C115.87 18.072 115.71 18.064 115.598 18.048C114.67 18.016 113.966 18 113.486 18C112.558 18 111.67 18.024 110.822 18.072L111.038 16.608Z" fill="#0B5B5A"/>
<path d="M129.493 18.288C127.813 18.288 126.485 17.8 125.509 16.824C124.549 15.832 124.069 14.48 124.069 12.768C124.069 11.616 124.317 10.576 124.813 9.648C125.309 8.72 125.989 7.992 126.853 7.464C127.717 6.92 128.677 6.648 129.733 6.648C132.421 6.648 133.765 8.008 133.765 10.728C133.765 11.208 133.709 11.656 133.597 12.072L133.309 12.36H127.093C127.109 13.528 127.381 14.424 127.909 15.048C128.453 15.656 129.205 15.96 130.165 15.96C130.997 15.96 131.949 15.72 133.021 15.24L133.189 15.336L133.573 16.512C132.981 16.96 132.293 17.368 131.509 17.736C130.741 18.104 130.069 18.288 129.493 18.288ZM130.381 10.848C130.573 10.832 130.693 10.792 130.741 10.728C130.805 10.664 130.837 10.52 130.837 10.296C130.837 9.112 130.333 8.52 129.325 8.52C128.701 8.52 128.189 8.736 127.789 9.168C127.405 9.6 127.173 10.224 127.093 11.04L130.381 10.848Z" fill="#0B5B5A"/>
<path d="M135.587 16.632C136.067 16.6 136.387 16.472 136.547 16.248C136.723 16.024 136.811 15.6 136.811 14.976V10.2C136.811 9.656 136.739 9.288 136.595 9.096C136.451 8.888 136.179 8.784 135.779 8.784L135.323 8.808L135.203 8.64L135.347 7.44C136.195 7.296 137.059 7.136 137.939 6.96C138.835 6.784 139.411 6.672 139.667 6.624L139.883 6.84C139.851 6.984 139.803 7.288 139.739 7.752C139.691 8.216 139.659 8.664 139.643 9.096L139.787 9.192C140.283 8.44 140.827 7.856 141.419 7.44C142.027 7.024 142.603 6.816 143.147 6.816C143.371 6.816 143.555 6.824 143.699 6.84C143.843 6.856 143.939 6.872 143.987 6.888L144.083 7.08C144.035 7.352 143.955 7.944 143.843 8.856C143.731 9.752 143.651 10.608 143.603 11.424L142.067 11.52C142.067 10.752 142.019 10.248 141.923 10.008C141.843 9.752 141.667 9.624 141.395 9.624C141.139 9.624 140.867 9.72 140.579 9.912C140.291 10.104 140.019 10.368 139.763 10.704C139.747 11.152 139.707 11.888 139.643 12.912C139.595 13.92 139.563 14.728 139.547 15.336C139.547 15.752 139.611 16.04 139.739 16.2C139.883 16.36 140.131 16.44 140.483 16.44C140.723 16.44 140.963 16.432 141.203 16.416C141.443 16.4 141.603 16.384 141.683 16.368L141.755 16.512L141.491 18.096C141.267 18.08 140.851 18.056 140.243 18.024C139.651 18.008 139.035 18 138.395 18C137.787 18 137.179 18.008 136.571 18.024C135.963 18.056 135.571 18.08 135.395 18.096L135.587 16.632Z" fill="#0B5B5A"/>
</svg>
