<svg width="100" height="100" viewBox="0 0 100 100" fill="none" xmlns="http://www.w3.org/2000/svg">
<path d="M11.9048 52.381H19.0476V71.4286C19.0476 76.6667 23.3333 80.9524 28.5714 80.9524H47.619V88.0952C47.619 94.6667 52.9524 100 59.5238 100C66.0952 100 71.4286 94.6667 71.4286 88.0952V80.9524H90.4762C95.7143 80.9524 99.9524 76.6667 99.9524 71.4286V53.3333H92.8571C85.7619 53.3333 80 47.5714 80 40.4762C80 33.381 85.7619 27.619 92.8571 27.619H100V9.52381C100 4.28572 95.7143 9.53674e-07 90.4762 9.53674e-07H72.381V7.14286C72.381 14.2381 66.619 20 59.5238 20C52.4286 20 46.6667 14.2381 46.6667 7.14286V9.53674e-07L28.5714 9.53674e-07C23.3333 9.53674e-07 19.0476 4.28572 19.0476 9.52381V28.5714H11.9048C5.33333 28.5714 9.53674e-07 33.9048 9.53674e-07 40.4762C9.53674e-07 47.0476 5.33333 52.381 11.9048 52.381Z" fill="#C6EBEB"/>
</svg>
